<?xml version="1.0" encoding="utf-8"?>
<!-- Generator: Adobe Illustrator 15.0.2, SVG Export Plug-In . SVG Version: 6.00 Build 0)  -->
<!DOCTYPE svg PUBLIC "-//W3C//DTD SVG 1.1//EN" "http://www.w3.org/Graphics/SVG/1.1/DTD/svg11.dtd">
<svg version="1.1" id="Layer_1" xmlns="http://www.w3.org/2000/svg" xmlns:xlink="http://www.w3.org/1999/xlink" x="0px" y="0px"
	 width="512px" height="1024px" viewBox="0 0 512 1024" enable-background="new 0 0 512 1024" xml:space="preserve">
<path d="M442.182,232.728V768c0,102.863-83.318,186.182-186.182,186.182S69.818,870.863,69.818,768V186.182
	c0-64.228,52.136-116.363,116.363-116.363s116.364,52.136,116.364,116.363v488.728c0,25.591-20.728,46.546-46.546,46.546
	c-25.829,0-46.546-20.955-46.546-46.546V232.728h-69.817v442.182c0,64.228,52.136,116.363,116.363,116.363
	s116.363-52.136,116.363-116.363V186.182C372.363,83.318,289.046,0,186.182,0C83.318,0,0,83.318,0,186.182V768
	c0,141.5,114.738,256,256,256c141.272,0,256-114.5,256-256V232.728H442.182z"/>
</svg>
